<svg width="164" height="226" viewBox="0 0 164 226" fill="none" xmlns="http://www.w3.org/2000/svg">
<g clip-path="url(#clip0_900_477)">
<path d="M90.2689 95.4456C99.4534 92.0269 104.248 85.4437 104.248 74.1131C104.248 62.7826 94.721 52.7986 82.8172 52.7785C70.2549 52.7584 60.779 62.7414 60.9303 74.1131C61.0815 85.4849 66.4935 93.0501 75.1541 95.7855L59.8114 133.615C39.2769 128.287 18.3921 104.008 18.3921 74.1131C18.3921 38.7048 46.7798 10 82.3612 10C117.943 10 146.786 38.7048 146.786 74.1131C146.786 104.473 126.099 128.414 105.127 133.721L90.2689 95.4456Z" fill="#3DA638" stroke="#1C511C" stroke-width="5" stroke-linecap="round" stroke-linejoin="round"/>
<path d="M27.9298 158.28C27.9298 160.416 27.3878 162.084 26.3038 163.282C25.227 164.473 23.7167 165.069 21.7727 165.069C19.9083 165.069 18.4232 164.458 17.3176 163.236C16.2191 162.014 15.6699 160.362 15.6699 158.28C15.6699 156.151 16.2083 154.499 17.2851 153.324C18.369 152.14 19.8866 151.549 21.8378 151.549C23.0446 151.549 24.1105 151.821 25.0355 152.367C25.9605 152.913 26.6723 153.696 27.171 154.718C27.6768 155.733 27.9298 156.92 27.9298 158.28ZM19.9733 158.28C19.9733 159.402 20.1142 160.259 20.3961 160.85C20.6779 161.434 21.1513 161.726 21.8161 161.726C22.4737 161.726 22.9362 161.434 23.2036 160.85C23.4782 160.259 23.6155 159.402 23.6155 158.28C23.6155 157.166 23.4782 156.324 23.2036 155.756C22.929 155.187 22.4593 154.903 21.7944 154.903C21.144 154.903 20.6779 155.187 20.3961 155.756C20.1142 156.317 19.9733 157.158 19.9733 158.28Z" fill="black"/>
<path d="M37.7073 165.069C37.0858 165.069 36.5293 164.961 36.0379 164.746C35.5465 164.523 35.0587 164.127 34.5746 163.559H34.3794C34.5095 164.473 34.5746 165.042 34.5746 165.265V170.509H30.3362V151.779H33.7832L34.3794 153.439H34.5746C35.3622 152.179 36.4498 151.549 37.8373 151.549C39.1959 151.549 40.2618 152.148 41.0351 153.347C41.8083 154.545 42.1949 156.19 42.1949 158.28C42.1949 160.385 41.7903 162.045 40.9809 163.259C40.1787 164.466 39.0875 165.069 37.7073 165.069ZM36.2872 155.087C35.6658 155.087 35.2286 155.325 34.9756 155.802C34.7299 156.27 34.5962 156.97 34.5746 157.9V158.257C34.5746 159.379 34.7155 160.189 34.9973 160.689C35.2791 161.188 35.7236 161.438 36.3306 161.438C36.8726 161.438 37.2664 161.192 37.5121 160.7C37.7578 160.201 37.8807 159.379 37.8807 158.234C37.8807 157.112 37.7578 156.309 37.5121 155.825C37.2664 155.333 36.8581 155.087 36.2872 155.087Z" fill="black"/>
<path d="M50.5308 165.069C48.4857 165.069 46.8959 164.492 45.7613 163.34C44.634 162.18 44.0703 160.531 44.0703 158.395C44.0703 156.19 44.5942 154.499 45.6421 153.324C46.6899 152.14 48.1858 151.549 50.1298 151.549C51.9798 151.549 53.407 152.063 54.4115 153.093C55.4232 154.115 55.9291 155.59 55.9291 157.519V159.525H48.352C48.3809 160.255 48.6303 160.827 49.1 161.242C49.5769 161.657 50.2237 161.865 51.0403 161.865C51.7847 161.865 52.4676 161.792 53.089 161.646C53.7178 161.492 54.397 161.234 55.1269 160.873V164.112C54.4621 164.473 53.7756 164.723 53.0674 164.861C52.3592 165 51.5137 165.069 50.5308 165.069ZM50.2815 154.615C49.7829 154.615 49.3638 154.784 49.0241 155.122C48.6917 155.452 48.4966 155.975 48.4388 156.689H52.0809C52.0665 156.059 51.8967 155.556 51.5715 155.179C51.2535 154.803 50.8235 154.615 50.2815 154.615Z" fill="black"/>
<path d="M66.0967 164.838V157.715C66.0967 156.847 65.9774 156.194 65.7389 155.756C65.5077 155.31 65.1319 155.087 64.6116 155.087C63.8962 155.087 63.3795 155.391 63.0615 155.998C62.7435 156.605 62.5846 157.646 62.5846 159.121V164.838H58.3462V151.779H61.5439L62.0751 153.393H62.3244C62.6857 152.778 63.1844 152.317 63.8203 152.01C64.4635 151.702 65.2006 151.549 66.0316 151.549C67.3902 151.549 68.4453 151.967 69.1969 152.805C69.9556 153.643 70.335 154.822 70.335 156.343V164.838H66.0967Z" fill="black"/>
<path d="M87.397 161.208C87.397 162.452 86.9706 163.409 86.1179 164.078C85.2652 164.738 84.0439 165.069 82.454 165.069C80.857 165.069 79.5743 164.811 78.6059 164.297V161.957C80.0151 162.648 81.3267 162.994 82.5408 162.994C84.1089 162.994 84.893 162.491 84.893 161.484C84.893 161.161 84.8063 160.893 84.6328 160.677C84.4594 160.462 84.174 160.239 83.7765 160.009C83.379 159.778 82.8262 159.517 82.118 159.225C80.7377 158.656 79.8019 158.088 79.3105 157.519C78.8263 156.951 78.5842 156.213 78.5842 155.306C78.5842 154.215 78.9961 153.37 79.82 152.77C80.651 152.163 81.7784 151.86 83.202 151.86C84.6112 151.86 85.9445 152.163 87.2019 152.77L86.3781 154.811C85.0845 154.242 83.9969 153.958 83.1153 153.958C81.7711 153.958 81.0991 154.365 81.0991 155.179C81.0991 155.579 81.2725 155.917 81.6194 156.194C81.9735 156.47 82.7395 156.851 83.9174 157.335C84.9075 157.742 85.6265 158.115 86.0745 158.453C86.5226 158.791 86.855 159.183 87.0718 159.628C87.2886 160.066 87.397 160.593 87.397 161.208Z" fill="black"/>
<path d="M100.773 158.441C100.773 160.524 100.271 162.149 99.2666 163.317C98.2621 164.485 96.8638 165.069 95.0716 165.069C93.9515 165.069 92.9615 164.8 92.1015 164.262C91.2415 163.724 90.5803 162.952 90.1178 161.945C89.6553 160.939 89.4241 159.771 89.4241 158.441C89.4241 156.374 89.9227 154.761 90.92 153.6C91.9172 152.44 93.3228 151.86 95.1367 151.86C96.871 151.86 98.2441 152.455 99.2558 153.646C100.268 154.83 100.773 156.428 100.773 158.441ZM92.0473 158.441C92.0473 161.384 93.0699 162.856 95.115 162.856C97.1384 162.856 98.1501 161.384 98.1501 158.441C98.1501 155.529 97.1312 154.073 95.0933 154.073C94.0238 154.073 93.2469 154.449 92.7627 155.202C92.2858 155.955 92.0473 157.035 92.0473 158.441Z" fill="black"/>
<path d="M112.166 164.838L111.808 163.167H111.678C111.324 163.759 110.818 164.224 110.161 164.562C109.51 164.9 108.766 165.069 107.928 165.069C106.475 165.069 105.391 164.685 104.676 163.916C103.96 163.148 103.603 161.984 103.603 160.424V152.09H106.172V159.951C106.172 160.927 106.359 161.661 106.735 162.153C107.111 162.637 107.7 162.879 108.502 162.879C109.572 162.879 110.356 162.541 110.854 161.865C111.36 161.181 111.613 160.04 111.613 158.441V152.09H114.171V164.838H112.166Z" fill="black"/>
<path d="M123.884 151.86C124.397 151.86 124.82 151.898 125.152 151.975L124.903 154.499C124.541 154.407 124.166 154.361 123.775 154.361C122.757 154.361 121.929 154.714 121.293 155.421C120.664 156.128 120.35 157.047 120.35 158.176V164.838H117.803V152.09H119.797L120.133 154.338H120.263C120.661 153.577 121.178 152.974 121.813 152.528C122.457 152.083 123.147 151.86 123.884 151.86Z" fill="black"/>
<path d="M132.22 165.069C130.406 165.069 129.026 164.508 128.079 163.386C127.139 162.256 126.67 160.639 126.67 158.533C126.67 156.39 127.161 154.741 128.144 153.589C129.134 152.436 130.561 151.86 132.426 151.86C133.69 151.86 134.828 152.11 135.84 152.609L135.071 154.787C133.994 154.342 133.105 154.119 132.404 154.119C130.33 154.119 129.293 155.583 129.293 158.51C129.293 159.94 129.549 161.015 130.063 161.738C130.583 162.452 131.342 162.81 132.339 162.81C133.473 162.81 134.547 162.51 135.558 161.911V164.274C135.103 164.558 134.615 164.761 134.095 164.884C133.582 165.007 132.957 165.069 132.22 165.069Z" fill="black"/>
<path d="M143.634 165.069C141.769 165.069 140.31 164.493 139.255 163.34C138.207 162.18 137.683 160.585 137.683 158.557C137.683 156.474 138.171 154.837 139.146 153.646C140.122 152.455 141.462 151.86 143.168 151.86C144.75 151.86 146.001 152.371 146.918 153.393C147.836 154.415 148.295 155.821 148.295 157.611V159.075H140.306C140.342 160.312 140.657 161.265 141.249 161.934C141.842 162.595 142.676 162.925 143.753 162.925C144.461 162.925 145.119 162.856 145.726 162.717C146.34 162.571 146.998 162.333 147.699 162.003V164.204C147.077 164.519 146.449 164.742 145.813 164.873C145.177 165.003 144.451 165.069 143.634 165.069ZM143.168 153.911C142.358 153.911 141.708 154.184 141.217 154.73C140.732 155.275 140.443 156.071 140.349 157.116H145.791C145.777 156.063 145.538 155.268 145.076 154.73C144.613 154.184 143.977 153.911 143.168 153.911Z" fill="black"/>
<path d="M39.485 188.509H36.9376V175.761H39.485V188.509ZM36.7859 172.384C36.7859 171.9 36.9087 171.527 37.1544 171.266C37.4074 171.005 37.7651 170.874 38.2276 170.874C38.6756 170.874 39.0225 171.005 39.2682 171.266C39.5211 171.527 39.6476 171.9 39.6476 172.384C39.6476 172.845 39.5211 173.21 39.2682 173.479C39.0225 173.74 38.6756 173.871 38.2276 173.871C37.7651 173.871 37.4074 173.74 37.1544 173.479C36.9087 173.21 36.7859 172.845 36.7859 172.384Z" fill="black"/>
<path d="M53.6851 188.509H51.1269V180.671C51.1269 179.688 50.939 178.954 50.5632 178.47C50.1947 177.986 49.6057 177.744 48.7963 177.744C47.7196 177.744 46.9319 178.082 46.4332 178.758C45.9346 179.434 45.6853 180.568 45.6853 182.158V188.509H43.1379V175.761H45.1325L45.4902 177.432H45.6203C45.9816 176.825 46.4947 176.357 47.1595 176.026C47.8244 175.696 48.5615 175.531 49.3708 175.531C52.247 175.531 53.6851 177.087 53.6851 180.199V188.509Z" fill="black"/>
<path d="M59.7772 188.509H57.2299V175.761H59.7772V188.509ZM57.0781 172.384C57.0781 171.9 57.201 171.527 57.4467 171.266C57.6996 171.005 58.0573 170.874 58.5198 170.874C58.9679 170.874 59.3147 171.005 59.5604 171.266C59.8134 171.527 59.9398 171.9 59.9398 172.384C59.9398 172.845 59.8134 173.21 59.5604 173.479C59.3147 173.74 58.9679 173.871 58.5198 173.871C58.0573 173.871 57.6996 173.74 57.4467 173.479C57.201 173.21 57.0781 172.845 57.0781 172.384Z" fill="black"/>
<path d="M67.8961 186.55C68.5176 186.55 69.139 186.446 69.7605 186.238V188.279C69.4787 188.409 69.1138 188.517 68.6657 188.601C68.2249 188.693 67.766 188.74 67.2891 188.74C64.8754 188.74 63.6686 187.387 63.6686 184.682V177.813H62.0317V176.614L63.7878 175.623L64.655 172.926H66.2267V175.761H69.6413V177.813H66.2267V184.636C66.2267 185.289 66.3785 185.774 66.682 186.089C66.9928 186.396 67.3974 186.55 67.8961 186.55Z" fill="black"/>
<path d="M74.6928 188.509H72.1454V175.761H74.6928V188.509ZM71.9937 172.384C71.9937 171.9 72.1165 171.527 72.3622 171.266C72.6151 171.005 72.9728 170.874 73.4353 170.874C73.8834 170.874 74.2303 171.005 74.476 171.266C74.7289 171.527 74.8554 171.9 74.8554 172.384C74.8554 172.845 74.7289 173.21 74.476 173.479C74.2303 173.74 73.8834 173.871 73.4353 173.871C72.9728 173.871 72.6151 173.74 72.3622 173.479C72.1165 173.21 71.9937 172.845 71.9937 172.384Z" fill="black"/>
<path d="M85.8469 188.509L85.3374 186.734H85.2507C84.6726 187.51 84.0909 188.04 83.5055 188.325C82.9202 188.601 82.1686 188.74 81.2508 188.74C80.0729 188.74 79.1515 188.401 78.4867 187.725C77.8291 187.049 77.5002 186.092 77.5002 184.855C77.5002 183.541 77.9591 182.55 78.8769 181.882C79.7947 181.213 81.193 180.848 83.0719 180.787L85.1423 180.717V180.037C85.1423 179.223 84.9617 178.616 84.6003 178.216C84.2462 177.809 83.6934 177.605 82.9418 177.605C82.3276 177.605 81.7386 177.701 81.1749 177.893C80.6113 178.086 80.0693 178.312 79.549 178.574L78.7251 176.637C79.3755 176.276 80.0873 176.003 80.8606 175.819C81.6338 175.627 82.3637 175.531 83.0502 175.531C84.575 175.531 85.7241 175.884 86.4973 176.591C87.2778 177.298 87.668 178.408 87.668 179.922V188.509H85.8469ZM82.053 186.665C82.978 186.665 83.7187 186.392 84.2751 185.847C84.8388 185.293 85.1206 184.521 85.1206 183.53V182.423L83.5814 182.492C82.3818 182.539 81.5074 182.754 80.9581 183.138C80.4162 183.514 80.1452 184.095 80.1452 184.878C80.1452 185.447 80.3041 185.889 80.6221 186.204C80.9401 186.511 81.417 186.665 82.053 186.665Z" fill="black"/>
<path d="M95.6895 186.55C96.311 186.55 96.9325 186.446 97.554 186.238V188.279C97.2722 188.409 96.9072 188.517 96.4592 188.601C96.0183 188.693 95.5595 188.74 95.0825 188.74C92.6688 188.74 91.462 187.387 91.462 184.682V177.813H89.8252V176.614L91.5812 175.623L92.4484 172.926H94.0202V175.761H97.4347V177.813H94.0202V184.636C94.0202 185.289 94.172 185.774 94.4755 186.089C94.7862 186.396 95.1909 186.55 95.6895 186.55Z" fill="black"/>
<path d="M102.486 188.509H99.9386V175.761H102.486V188.509ZM99.7869 172.384C99.7869 171.9 99.9097 171.527 100.155 171.266C100.408 171.005 100.766 170.874 101.229 170.874C101.677 170.874 102.023 171.005 102.269 171.266C102.522 171.527 102.649 171.9 102.649 172.384C102.649 172.845 102.522 173.21 102.269 173.479C102.023 173.74 101.677 173.871 101.229 173.871C100.766 173.871 100.408 173.74 100.155 173.479C99.9097 173.21 99.7869 172.845 99.7869 172.384Z" fill="black"/>
<path d="M108.871 188.509L104.318 175.761H107.006L109.445 183.172C109.864 184.417 110.117 185.424 110.204 186.192H110.291C110.356 185.639 110.609 184.632 111.049 183.172L113.488 175.761H116.198L111.624 188.509H108.871Z" fill="black"/>
<path d="M123.255 188.74C121.391 188.74 119.931 188.163 118.876 187.011C117.828 185.85 117.304 184.256 117.304 182.227C117.304 180.145 117.792 178.508 118.768 177.317C119.743 176.126 121.084 175.531 122.789 175.531C124.372 175.531 125.622 176.042 126.54 177.064C127.457 178.086 127.916 179.492 127.916 181.282V182.746H119.927C119.964 183.983 120.278 184.936 120.871 185.604C121.463 186.265 122.298 186.596 123.374 186.596C124.083 186.596 124.74 186.527 125.347 186.388C125.962 186.242 126.619 186.004 127.32 185.674V187.875C126.699 188.19 126.07 188.413 125.434 188.544C124.798 188.674 124.072 188.74 123.255 188.74ZM122.789 177.582C121.98 177.582 121.329 177.855 120.838 178.401C120.354 178.946 120.065 179.741 119.971 180.787H125.412C125.398 179.734 125.159 178.939 124.697 178.401C124.234 177.855 123.599 177.582 122.789 177.582Z" fill="black"/>
<path d="M132.97 173.96H133.511C133.778 173.96 133.991 173.892 134.151 173.755C134.315 173.614 134.396 173.437 134.396 173.223C134.396 172.972 134.325 172.793 134.181 172.686C134.038 172.576 133.811 172.521 133.501 172.521H132.97V173.96ZM135.142 173.203C135.142 173.47 135.07 173.708 134.927 173.915C134.787 174.119 134.588 174.271 134.331 174.372L135.523 176.353H134.682L133.646 174.577H132.97V176.353H132.229V171.884H133.536C134.09 171.884 134.495 171.992 134.752 172.21C135.012 172.427 135.142 172.758 135.142 173.203ZM129.852 174.116C129.852 173.447 130.019 172.82 130.353 172.235C130.686 171.65 131.145 171.188 131.729 170.85C132.313 170.513 132.942 170.344 133.616 170.344C134.283 170.344 134.909 170.511 135.493 170.845C136.076 171.18 136.537 171.64 136.874 172.225C137.211 172.81 137.379 173.44 137.379 174.116C137.379 174.775 137.218 175.393 136.894 175.972C136.57 176.55 136.116 177.013 135.533 177.361C134.949 177.709 134.31 177.883 133.616 177.883C132.925 177.883 132.288 177.711 131.704 177.366C131.12 177.018 130.665 176.555 130.338 175.977C130.014 175.398 129.852 174.778 129.852 174.116ZM130.378 174.116C130.378 174.694 130.523 175.236 130.813 175.741C131.103 176.243 131.499 176.639 131.999 176.93C132.503 177.217 133.042 177.361 133.616 177.361C134.196 177.361 134.735 177.216 135.232 176.925C135.729 176.634 136.123 176.241 136.413 175.746C136.707 175.248 136.854 174.704 136.854 174.116C136.854 173.534 136.709 172.994 136.418 172.496C136.128 171.997 135.734 171.603 135.237 171.312C134.743 171.018 134.203 170.87 133.616 170.87C133.035 170.87 132.496 171.016 131.999 171.307C131.502 171.598 131.107 171.992 130.813 172.491C130.523 172.985 130.378 173.527 130.378 174.116Z" fill="black"/>
</g>
<defs>
<clipPath id="clip0_900_477">
<rect width="164" height="226" fill="white"/>
</clipPath>
</defs>
</svg>
