<svg width="60" height="60" viewBox="0 0 60 60" fill="none" xmlns="http://www.w3.org/2000/svg">
<circle opacity="0.15" cx="25.9909" cy="32.5924" r="24.9909" fill="#EE672D"/>
<path d="M30 60C13.4598 60 0 46.5402 0 30C0 22.5181 2.77193 15.3484 7.80175 9.81977C8.50996 9.04303 9.71316 8.98591 10.4899 9.69412C11.2667 10.4023 11.3238 11.6055 10.6156 12.3823C6.2216 17.2103 3.80378 23.47 3.80378 30.0038C3.80378 44.446 15.554 56.1962 29.9962 56.1962C44.4384 56.1962 56.1886 44.446 56.1886 30.0038C56.1886 15.5616 44.4422 3.80759 30 3.80759C26.1543 3.80759 22.4457 4.62241 18.9884 6.22922C18.0366 6.6709 16.9019 6.25587 16.4602 5.30397C16.0185 4.35208 16.4336 3.21741 17.3855 2.77573C21.3492 0.932859 25.5946 0 30 0C46.5402 0 60 13.456 60 30C60 46.544 46.544 60 30 60Z" fill="#EE672D"/>
<path d="M19.0411 44.7724L19.0424 44.7723C19.74 44.7301 20.2716 44.1285 20.2269 43.4308C20.2147 43.2151 20.2074 42.9951 20.2074 42.7804C20.2074 37.1506 24.7891 32.5688 30.4189 32.5688C36.0487 32.5688 40.6329 37.1506 40.6329 42.7804C40.6329 43.0001 40.6256 43.2203 40.6134 43.4309C40.5687 44.1285 41.1003 44.7301 41.7979 44.7723L41.7979 44.7726H41.8069H41.8071H41.8072H41.8074H41.8075H41.8077H41.8078H41.8079H41.8081H41.8082H41.8084H41.8085H41.8087H41.8088H41.809H41.8091H41.8093H41.8094H41.8095H41.8097H41.8098H41.81H41.8101H41.8103H41.8104H41.8105H41.8107H41.8108H41.811H41.8111H41.8113H41.8114H41.8116H41.8117H41.8118H41.812H41.8121H41.8123H41.8124H41.8126H41.8127H41.8128H41.813H41.8131H41.8133H41.8134H41.8136H41.8137H41.8138H41.814H41.8141H41.8143H41.8144H41.8146H41.8147H41.8148H41.815H41.8151H41.8153H41.8154H41.8156H41.8157H41.8158H41.816H41.8161H41.8163H41.8164H41.8165H41.8167H41.8168H41.817H41.8171H41.8173H41.8174H41.8175H41.8177H41.8178H41.818H41.8181H41.8182H41.8184H41.8185H41.8187H41.8188H41.8189H41.8191H41.8192H41.8194H41.8195H41.8197H41.8198H41.8199H41.8201H41.8202H41.8204H41.8205H41.8206H41.8208H41.8209H41.8211H41.8212H41.8213H41.8215H41.8216H41.8218H41.8219H41.822H41.8222H41.8223H41.8225H41.8226H41.8227H41.8229H41.823H41.8232H41.8233H41.8234H41.8236H41.8237H41.8239H41.824H41.8241H41.8243H41.8244H41.8245H41.8247H41.8248H41.825H41.8251H41.8252H41.8254H41.8255H41.8257H41.8258H41.8259H41.8261H41.8262H41.8264H41.8265H41.8266H41.8268H41.8269H41.827H41.8272H41.8273H41.8275H41.8276H41.8277H41.8279H41.828H41.8282H41.8283H41.8284H41.8286H41.8287H41.8288H41.829H41.8291H41.8293H41.8294H41.8295H41.8297H41.8298H41.8299H41.8301H41.8302H41.8304H41.8305H41.8306H41.8308H41.8309H41.831H41.8312H41.8313H41.8315H41.8316H41.8317H41.8319H41.832H41.8321H41.8323H41.8324H41.8326H41.8327H41.8328H41.833H41.8331H41.8332H41.8334H41.8335H41.8336H41.8338H41.8339H41.8341H41.8342H41.8343H41.8345H41.8346H41.8347H41.8349H41.835H41.8351H41.8353H41.8354H41.8356H41.8357H41.8358H41.836H41.8361H41.8362H41.8364H41.8365H41.8366H41.8368H41.8369H41.837H41.8372H41.8373H41.8375H41.8376H41.8377H41.8379H41.838H41.8381H41.8383H41.8384H41.8385H41.8387H41.8388H41.8389H41.8391H41.8392H41.8393H41.8395H41.8396H41.8398H41.8399H41.84H41.8402H41.8403H41.8404H41.8406H41.8407H41.8408H41.841H41.8411H41.8412H41.8414H41.8415H41.8416H41.8418H41.8419H41.842H41.8422H41.8423H41.8424H41.8426H41.8427H41.8428H41.843H41.8431H41.8433H41.8434H41.8435H41.8437H41.8438H41.8439H41.8441H41.8442H41.8443H41.8445H41.8446H41.8447H41.8449H41.845H41.8451H41.8453H41.8454H41.8455H41.8457H41.8458H41.8459H41.8461H41.8462H41.8463H41.8465H41.8466H41.8467H41.8469H41.847H41.8471H41.8473H41.8474H41.8475H41.8477H41.8478H41.8479H41.8481H41.8482H41.8483H41.8485H41.8486H41.8487H41.8489H41.849H41.8491H41.8493H41.8494H41.8495H41.8497H41.8498H41.8499H41.8501H41.8502H41.8503H41.8505H41.8506H41.8507H41.8509H41.851H41.8511H41.8513H41.8514H41.8515H41.8517H41.8518H41.8519H41.8521H41.8522H41.8523H41.8525H41.8526H41.8527H41.8529H41.853H41.8531H41.8533H41.8534H41.8535H41.8536H41.8538H41.8539H41.854H41.8542H41.8543H41.8544H41.8546H41.8547H41.8548H41.855H41.8551H41.8552H41.8554H41.8555H41.8556H41.8558H41.8559H41.856H41.8562H41.8563H41.8564H41.8566H41.8567H41.8568H41.857H41.8571H41.8572H41.8573H41.8575H41.8576H41.8577H41.8579H41.858H41.8581H41.8583H41.8584H41.8585H41.8587H41.8588H41.8589H41.8591H41.8592H41.8593H41.8595H41.8596H41.8597H41.8599H41.86H41.8601H41.8602H41.8604H41.8605H41.8606H41.8608H41.8609H41.861H41.8612H41.8613H41.8614H41.8616H41.8617H41.8618H41.862H41.8621H41.8622H41.8624H41.8625H41.8626H41.8627H41.8629H41.863H41.8631H41.8633H41.8634H41.8635H41.8637H41.8638H41.8639H41.8641H41.8642H41.8643H41.8645H41.8646H41.8647H41.8648H41.865H41.8651H41.8652H41.8654H41.8655H41.8656H41.8658H41.8659H41.866H41.8662H41.8663H41.8664H41.8666H41.8667H41.8668H41.8669H41.8671H41.8672H41.8673H41.8675H41.8676H41.8677H41.8679H41.868H41.8681H41.8683H41.8684H41.8685H41.8686H41.8688H41.8689H41.869H41.8692H41.8693H41.8694H41.8696H41.8697H41.8698H41.87H41.8701H41.8702H41.8703H41.8705H41.8706H41.8707H41.8709H41.871H41.8711H41.8713H41.8714H41.8715H41.8717H41.8718H41.8719H41.872H41.8722H41.8723H41.8724H41.8726H41.8727H41.8728H41.873H41.8731H41.8732H41.8734H41.8735H41.8736H41.8738H41.8739H41.874H41.8741H41.8743H41.8744H41.8745H41.8747H41.8748H41.8749H41.8751H41.8752H41.8753H41.8755H41.8756H41.8757H41.8758H41.876H41.8761H41.8762H41.8764C42.5399 44.7726 43.0968 44.2582 43.1393 43.5862C43.1569 43.322 43.1644 43.0508 43.1644 42.7779C43.1644 37.38 39.7889 32.7555 35.0401 30.9024C37.2211 29.4186 38.6593 26.919 38.6593 24.0879C38.6593 19.5446 34.9647 15.85 30.4214 15.85C25.878 15.85 22.1835 19.5446 22.1835 24.0879C22.1835 26.9187 23.6214 29.4206 25.8001 30.9024C21.0513 32.7556 17.6759 37.38 17.6759 42.7779C17.6759 43.0458 17.6834 43.3168 17.701 43.5857C17.7434 44.2839 18.338 44.8088 19.0411 44.7724ZM24.7125 24.0879C24.7125 20.9425 27.2735 18.3815 30.4189 18.3815C33.5643 18.3815 36.1253 20.9425 36.1253 24.0879C36.1253 27.2333 33.5643 29.7943 30.4189 29.7943C27.2735 29.7943 24.7125 27.2333 24.7125 24.0879Z" fill="#EE672D" stroke="#EE672D" stroke-width="0.3"/>
<path d="M39.2879 30.6684C39.2903 30.6287 39.2928 30.5915 39.3003 30.5543C39.3077 30.5172 39.3151 30.4824 39.325 30.4477C39.335 30.413 39.3449 30.3783 39.3573 30.3436C39.3697 30.3089 39.3846 30.2766 39.4019 30.2444M39.2879 30.6684L39.5135 30.0634C39.4912 30.0932 39.4713 30.1204 39.4515 30.1527C39.4349 30.1775 39.4218 30.2041 39.4093 30.2295C39.4068 30.2345 39.4044 30.2395 39.4019 30.2444M39.2879 30.6684C39.2879 30.6793 39.2861 30.6901 39.2843 30.7013M39.2879 30.6684L39.2843 30.7013M39.4019 30.2444L39.2677 30.1773C39.268 30.1767 39.2684 30.1761 39.2687 30.1755M39.4019 30.2444L39.2698 30.1733C39.2694 30.174 39.2691 30.1747 39.2687 30.1755M39.3251 30.0719C39.3482 30.0346 39.3709 30.0036 39.3935 29.9734L39.3973 29.9683L39.3974 29.9684C39.3994 29.966 39.4027 29.9617 39.407 29.9561C39.4217 29.9369 39.4481 29.9025 39.4716 29.8784C39.4995 29.8479 39.5273 29.8226 39.5517 29.8005L39.5539 29.7985C39.5849 29.7679 39.6173 29.7416 39.6491 29.7178L39.6509 29.7165L39.6509 29.7165C39.6829 29.6932 39.7186 29.6712 39.7491 29.6534C39.7854 29.6295 39.8233 29.6093 39.8597 29.5925C39.8982 29.5748 39.9383 29.5604 39.9713 29.5487L39.9738 29.5478L40.0242 29.689M39.3251 30.0719L39.5928 31.7222C39.5757 31.7033 39.5597 31.6832 39.5441 31.6636C39.5371 31.6549 39.5303 31.6462 39.5234 31.6379L39.5234 31.6378C39.5011 31.6105 39.4788 31.5833 39.4589 31.5536C39.4447 31.5323 39.4331 31.5097 39.4212 31.4868C39.4165 31.4777 39.4118 31.4685 39.4069 31.4593L39.4069 31.4593C39.3895 31.4271 39.3722 31.3949 39.3598 31.3626C39.3474 31.3279 39.3374 31.2932 39.3275 31.256M39.3251 30.0719C39.3033 30.1051 39.2856 30.141 39.2736 30.1654C39.2719 30.169 39.2702 30.1724 39.2687 30.1755M39.3251 30.0719L39.3003 31.1519C39.3077 31.1866 39.3176 31.2213 39.3275 31.256M40.0242 29.689L39.9704 29.549C40.0089 29.5342 40.0491 29.5227 40.082 29.5133L40.0847 29.5126L40.0964 29.5092L40.0965 29.5097C40.1344 29.5021 40.178 29.4939 40.2201 29.4883L40.2248 29.4876C40.226 29.4874 40.2295 29.4865 40.2383 29.4843C40.25 29.4814 40.2734 29.4756 40.3021 29.4747C42.421 29.3076 44.0794 27.5118 44.0794 25.3822C44.0794 23.2512 42.4187 21.4546 40.2979 21.292C39.6003 21.2385 39.0799 20.6308 39.1333 19.9334C39.1868 19.2354 39.7999 18.7154 40.492 18.7688M40.0242 29.689C40.0564 29.6766 40.0911 29.6667 40.1258 29.6568L40.1259 29.6568L39.8284 29.7808C39.8581 29.7609 39.8904 29.7436 39.9226 29.7287C39.9548 29.7138 39.9895 29.7014 40.0242 29.689ZM40.492 18.7688C40.492 18.7688 40.492 18.7688 40.492 18.7688C40.492 18.7688 40.492 18.7688 40.492 18.7688ZM40.492 18.7688C43.9249 19.0327 46.6109 21.9369 46.6109 25.3822C46.6109 27.4557 45.6376 29.3326 44.1163 30.5566C47.65 32.1403 50.0845 35.682 50.0845 39.7828C50.0845 40.0105 50.0795 40.2221 50.0669 40.4244L50.0669 40.4244C50.0247 41.0962 49.4681 41.6138 48.8039 41.6138H48.8038H48.8037H48.8035H48.8034H48.8033H48.8031H48.803H48.8029H48.8027H48.8026H48.8025H48.8024H48.8022H48.8021H48.802H48.8018H48.8017H48.8016H48.8014H48.8013H48.8012H48.801H48.8009H48.8008H48.8006H48.8005H48.8004H48.8002H48.8001H48.8H48.7998H48.7997H48.7996H48.7994H48.7993H48.7992H48.7991H48.7989H48.7988H48.7987H48.7985H48.7984H48.7983H48.7981H48.798H48.7979H48.7977H48.7976H48.7975H48.7973H48.7972H48.7971H48.7969H48.7968H48.7967H48.7965H48.7964H48.7963H48.7961H48.796H48.7959H48.7957H48.7956H48.7955H48.7953H48.7952H48.795H48.7949H48.7948H48.7946H48.7945H48.7944H48.7942H48.7941H48.794H48.7938H48.7937H48.7936H48.7934H48.7933H48.7932H48.793H48.7929H48.7928H48.7926H48.7925H48.7924H48.7922H48.7921H48.792H48.7918H48.7917H48.7916H48.7914H48.7913H48.7911H48.791H48.7909H48.7907H48.7906H48.7905H48.7903H48.7902H48.7901H48.7899H48.7898H48.7897H48.7895H48.7894H48.7892H48.7891H48.789H48.7888H48.7887H48.7886H48.7884H48.7883H48.7882H48.788H48.7879H48.7878H48.7876H48.7875H48.7873H48.7872H48.7871H48.7869H48.7868H48.7867H48.7865H48.7864H48.7863H48.7861H48.786H48.7858H48.7857H48.7856H48.7854H48.7853H48.7852H48.785H48.7849H48.7848H48.7846H48.7845H48.7843H48.7842H48.7841H48.7839H48.7838H48.7837H48.7835H48.7834H48.7833H48.7831H48.783H48.7828H48.7827H48.7826H48.7824H48.7823H48.7822H48.782H48.7819H48.7817H48.7816H48.7815H48.7813H48.7812H48.7811H48.7809H48.7808H48.7806H48.7805H48.7804H48.7802H48.7801H48.78H48.7798H48.7797H48.7795H48.7794H48.7793H48.7791H48.779H48.7789H48.7787H48.7786H48.7784H48.7783H48.7782H48.778H48.7779H48.7778H48.7776H48.7775H48.7773H48.7772H48.7771H48.7769H48.7768H48.7767H48.7765H48.7764H48.7762H48.7761H48.776H48.7758H48.7757H48.7756H48.7754H48.7753H48.7751H48.775H48.7749H48.7747H48.7746H48.7745H48.7743H48.7742H48.774H48.7739H48.7738H48.7736H48.7735H48.7734H48.7732H48.7731H48.7729H48.7728H48.7727H48.7725H48.7724H48.7722H48.7721H48.772H48.7718H48.7717H48.7716H48.7714H48.7713H48.7711H48.771H48.7709H48.7707H48.7706H48.7705H48.7703H48.7702H48.77H48.7699H48.7698H48.7696H48.7695H48.7693H48.7692H48.7691H48.7689H48.7688H48.7687H48.7685H48.7684H48.7682H48.7681H48.768H48.7678H48.7677H48.7676H48.7674H48.7673H48.7671H48.767H48.7669H48.7667H48.7666H48.7664H48.7663H48.7662H48.766H48.7659H48.7658H48.7656H48.7655H48.7653H48.7652H48.7651H48.7649H48.7648H48.7647H48.7645H48.7644H48.7642H48.7641H48.764H48.7638H48.7637H48.7636H48.7634H48.7633H48.7631H48.763H48.7629H48.7627H48.7626H48.7625H48.7623H48.7622H48.762H48.7619H48.7618H48.7616H48.7615H48.7613H48.7612H48.7611H48.7609H48.7608H48.7607H48.7605H48.7604H48.7602H48.7601H48.76H48.7598H48.7597H48.7596H48.7594H48.7593H48.7591H48.759H48.7589H48.7587H48.7586H48.7585H48.7583H48.7582H48.758H48.7579H48.7578H48.7576H48.7575H48.7574H48.7572H48.7571H48.757H48.7568H48.7567H48.7565H48.7564H48.7563H48.7561H48.756H48.7559H48.7557H48.7556H48.7554H48.7553H48.7552H48.755H48.7549H48.7548H48.7546H48.7545H48.7543H48.7542H48.7541H48.7539H48.7538H48.7537H48.7535H48.7534H48.7533H48.7531H48.753H48.7528H48.7527H48.7526H48.7524H48.7523H48.7522H48.752H48.7519H48.7518H48.7516H48.7515H48.7513H48.7512H48.7511H48.7509H48.7508H48.7507H48.7505H48.7504H48.7503H48.7501H48.75H48.7499H48.7497H48.7496H48.7494H48.7493H48.7492H48.749H48.7489H48.7488H48.7486H48.7485H48.7484H48.7482H48.7481H48.748H48.7478H48.7477H48.7475H48.7474H48.7473H48.7471H48.747H48.7469H48.7467H48.7466H48.7465H48.7463H48.7462H48.7461H48.7459H48.7458H48.7457H48.7455H48.7454H48.7453H48.7451H48.745H48.7448H48.7447H48.7446H48.7444H48.7443H48.7442H48.744H48.7439H48.7438H48.7436H48.7435H48.7434H48.7432H48.7431H48.743H48.7428H48.7427H48.7426H48.7424H48.7423H48.7422H48.742H48.7419H48.7418H48.7416H48.7415H48.7414H48.7412H48.7411H48.741H48.7408H48.7407H48.7406H48.7404H48.7403H48.7402H48.74H48.7399H48.7398H48.7396H48.7395H48.7394H48.7392H48.7391H48.739H48.7388H48.7387H48.7386H48.7384H48.7383H48.7382H48.738H48.7379H48.7378H48.7376H48.7375H48.7374H48.7373H48.7371H48.737H48.7369H48.7367H48.7366H48.7365H48.7363H48.7362H48.7361H48.7359H48.7358H48.7357H48.7355H48.7354H48.7353H48.7351H48.735H48.7349H48.7348H48.7346H48.7345H48.7248L48.7248 41.6135C48.028 41.5686 47.4962 40.97 47.5385 40.2721L47.5385 40.2715C47.5482 40.1214 47.5531 39.9635 47.5531 39.7853C47.5531 35.7331 44.3843 32.4103 40.3398 32.2168C40.3111 32.2163 40.2863 32.2115 40.2719 32.2087L40.2661 32.2076C40.2523 32.2049 40.2488 32.2042 40.2449 32.2039L40.2375 32.2033L40.2375 32.2031L40.2355 32.2028C40.1996 32.198 40.1583 32.1925 40.1163 32.1841L40.1143 32.1837C40.0698 32.1742 40.027 32.1589 39.9945 32.1473L39.9912 32.1461C39.9859 32.1442 39.9791 32.1419 39.9712 32.1393C39.9458 32.1307 39.9093 32.1185 39.8789 32.1047C39.8474 32.0909 39.8107 32.0697 39.7884 32.0568C39.7813 32.0528 39.7757 32.0496 39.7721 32.0476L39.7676 32.0452L39.7677 32.0451L39.7662 32.0443C39.7373 32.0274 39.7043 32.0082 39.6708 31.9858L39.6639 31.9812L39.664 31.981C39.631 31.9563 39.6001 31.9311 39.5691 31.9029M39.5691 31.9029C39.569 31.9028 39.5689 31.9027 39.5688 31.9026L39.6697 31.7916L39.5693 31.9031C39.5693 31.903 39.5692 31.9029 39.5691 31.9029ZM39.5691 31.9029C39.5645 31.8987 39.5586 31.8936 39.5518 31.8877C39.5329 31.8711 39.5075 31.8489 39.4868 31.8282L39.4817 31.8232L39.4818 31.8231C39.4611 31.8003 39.4396 31.7732 39.423 31.7524C39.417 31.7449 39.4117 31.7382 39.4073 31.7328L39.4056 31.7308C39.3843 31.7048 39.3581 31.6727 39.3341 31.6368C39.3148 31.6077 39.2967 31.5728 39.2842 31.5485C39.2806 31.5414 39.2774 31.5353 39.2748 31.5305L39.2748 31.5305L39.2731 31.5272C39.2569 31.4972 39.2356 31.4577 39.2198 31.4165L39.2185 31.4131L39.2185 31.4131C39.2042 31.373 39.1931 31.3341 39.1829 31.296M39.1829 31.296L39.1833 31.2972L39.3275 31.256M39.1829 31.296C39.1828 31.2955 39.1827 31.2951 39.1826 31.2947L39.3275 31.256M39.1829 31.296L39.1828 31.2953C39.1732 31.2619 39.1621 31.223 39.1536 31.1833L39.1528 31.1795L39.1528 31.1795C39.1435 31.1296 39.1406 31.0838 39.1382 31.0447L39.1376 31.0354H39.1379C39.1379 31.0322 39.1375 31.0282 39.1355 31.0135L39.1353 31.0116C39.1335 30.9987 39.1304 30.9763 39.1304 30.9511V30.7378C39.1304 30.7128 39.134 30.6907 39.1358 30.6796L39.1361 30.6781C39.1373 30.6707 39.1377 30.6674 39.1379 30.6666M39.1379 30.6666V30.6684C39.1379 30.6672 39.1379 30.6663 39.1379 30.6663C39.1379 30.6663 39.1379 30.6664 39.1379 30.6666ZM39.1379 30.6666V30.659L39.1382 30.659L39.1382 30.6582C39.1406 30.6198 39.1435 30.5732 39.1532 30.5249C39.1608 30.4869 39.1692 30.4473 39.1808 30.4065L39.1813 30.4048C39.1909 30.3712 39.202 30.3325 39.216 30.2931C39.2311 30.2509 39.2489 30.2124 39.2687 30.1755M39.2843 30.7013C39.2824 30.713 39.2804 30.7251 39.2804 30.7378M39.2843 30.7013L39.2804 30.7378M39.2804 30.7378V30.9511M39.2804 30.7378V30.9511M39.2804 30.9511C39.2804 30.9659 39.2823 30.9796 39.2841 30.9932M39.2804 30.9511L39.2841 30.9932M39.2841 30.9932C39.286 31.0068 39.2879 31.0205 39.2879 31.0354L39.2841 30.9932Z" fill="#EE672D" stroke="#EE672D" stroke-width="0.3"/>
<path d="M20.6872 32.2011L20.6872 32.201C20.6832 32.2013 20.6797 32.202 20.6659 32.2047L20.6602 32.2058C20.6471 32.2084 20.6254 32.2125 20.6 32.2136L20.6 32.2137C16.5543 32.4058 13.384 35.7316 13.384 39.7823C13.384 39.9649 13.3865 40.1221 13.396 40.2684L13.3961 40.2692C13.4383 40.9665 12.907 41.5684 12.2091 41.6106L12.2001 41.6112V41.6109H12.1999H12.1998H12.1996H12.1995H12.1993H12.1992H12.199H12.1989H12.1987H12.1986H12.1985H12.1983H12.1982H12.198H12.1979H12.1977H12.1976H12.1974H12.1973H12.1972H12.197H12.1969H12.1967H12.1966H12.1964H12.1963H12.1961H12.196H12.1959H12.1957H12.1956H12.1954H12.1953H12.1951H12.195H12.1949H12.1947H12.1946H12.1944H12.1943H12.1941H12.194H12.1939H12.1937H12.1936H12.1934H12.1933H12.1931H12.193H12.1929H12.1927H12.1926H12.1924H12.1923H12.1921H12.192H12.1919H12.1917H12.1916H12.1914H12.1913H12.1911H12.191H12.1909H12.1907H12.1906H12.1904H12.1903H12.1902H12.19H12.1899H12.1897H12.1896H12.1894H12.1893H12.1892H12.189H12.1889H12.1887H12.1886H12.1885H12.1883H12.1882H12.188H12.1879H12.1878H12.1876H12.1875H12.1873H12.1872H12.1871H12.1869H12.1868H12.1866H12.1865H12.1863H12.1862H12.1861H12.1859H12.1858H12.1856H12.1855H12.1854H12.1852H12.1851H12.1849H12.1848H12.1847H12.1845H12.1844H12.1842H12.1841H12.184H12.1838H12.1837H12.1836H12.1834H12.1833H12.1831H12.183H12.1829H12.1827H12.1826H12.1824H12.1823H12.1822H12.182H12.1819H12.1817H12.1816H12.1815H12.1813H12.1812H12.181H12.1809H12.1808H12.1806H12.1805H12.1804H12.1802H12.1801H12.1799H12.1798H12.1797H12.1795H12.1794H12.1792H12.1791H12.179H12.1788H12.1787H12.1786H12.1784H12.1783H12.1781H12.178H12.1779H12.1777H12.1776H12.1775H12.1773H12.1772H12.177H12.1769H12.1768H12.1766H12.1765H12.1764H12.1762H12.1761H12.1759H12.1758H12.1757H12.1755H12.1754H12.1753H12.1751H12.175H12.1748H12.1747H12.1746H12.1744H12.1743H12.1742H12.174H12.1739H12.1738H12.1736H12.1735H12.1733H12.1732H12.1731H12.1729H12.1728H12.1727H12.1725H12.1724H12.1723H12.1721H12.172H12.1718H12.1717H12.1716H12.1714H12.1713H12.1712H12.171H12.1709H12.1708H12.1706H12.1705H12.1703H12.1702H12.1701H12.1699H12.1698H12.1697H12.1695H12.1694H12.1693H12.1691H12.169H12.1689H12.1687H12.1686H12.1685H12.1683H12.1682H12.168H12.1679H12.1678H12.1676H12.1675H12.1674H12.1672H12.1671H12.167H12.1668H12.1667H12.1666H12.1664H12.1663H12.1662H12.166H12.1659H12.1658H12.1656H12.1655H12.1653H12.1652H12.1651H12.1649H12.1648H12.1647H12.1645H12.1644H12.1643H12.1641H12.164H12.1639H12.1637H12.1636H12.1635H12.1633H12.1632H12.1631H12.1629H12.1628H12.1627H12.1625H12.1624H12.1623H12.1621H12.162H12.1619H12.1617H12.1616H12.1615H12.1613H12.1612H12.1611H12.1609H12.1608H12.1607H12.1605H12.1604H12.1603H12.1601H12.16H12.1599H12.1597H12.1596H12.1595H12.1593H12.1592H12.1591H12.1589H12.1588H12.1587H12.1585H12.1584H12.1583H12.1581H12.158H12.1579H12.1577H12.1576H12.1575H12.1573H12.1572H12.1571H12.1569H12.1568H12.1567H12.1565H12.1564H12.1563H12.1561H12.156H12.1559H12.1557H12.1556H12.1555H12.1553H12.1552H12.1551H12.1549H12.1548H12.1547H12.1545H12.1544H12.1543H12.1541H12.154H12.1539H12.1537H12.1536H12.1535H12.1533H12.1532H12.1531H12.1529H12.1528H12.1527H12.1525H12.1524H12.1523H12.1521H12.152H12.1519H12.1518H12.1516H12.1515H12.1514H12.1512H12.1511H12.151H12.1508H12.1507H12.1506H12.1504H12.1503H12.1502H12.15H12.1499H12.1498H12.1496H12.1495H12.1494H12.1492H12.1491H12.149H12.1488H12.1487H12.1486H12.1485H12.1483H12.1482H12.1481H12.1479H12.1478H12.1477H12.1475H12.1474H12.1473H12.1471H12.147H12.1469H12.1467H12.1466H12.1465H12.1463H12.1462H12.1461H12.1459H12.1458H12.1457H12.1456H12.1454H12.1453H12.1452H12.145H12.1449H12.1448H12.1446H12.1445H12.1444H12.1442H12.1441H12.144H12.1438H12.1437H12.1436H12.1435H12.1433H12.1432H12.1431H12.1429H12.1428H12.1427H12.1425H12.1424H12.1423H12.1421H12.142H12.1419H12.1417H12.1416H12.1415H12.1414H12.1412H12.1411H12.141H12.1408H12.1407H12.1406H12.1404H12.1403H12.1402H12.14H12.1399H12.1398H12.1396H12.1395H12.1394H12.1393H12.1391H12.139H12.1389H12.1387H12.1386H12.1385H12.1383H12.1382H12.1381H12.1379H12.1378H12.1377H12.1376H12.1374H12.1373H12.1372H12.137H12.1369H12.1368H12.1366H12.1365H12.1364H12.1362H12.1361H12.136H12.1359H12.1357H12.1356H12.1355H12.1353H12.1352H12.1351H12.1349H12.1348H12.1347H12.1345H12.1344H12.1343H12.1342H12.134H12.1339H12.1338H12.1336H12.1335H12.1334H12.1332H12.1331H12.133H12.1328H12.1327H12.1326H12.1325H12.1323H12.1322H12.1321H12.1319H12.1318H12.1317H12.1315H12.1314H12.1313H12.1311H12.131H12.1309H12.1308H12.1306C11.4664 41.6109 10.9098 41.0933 10.8677 40.4215M20.6872 32.2011L20.44 18.7659C17.0096 19.0298 14.3212 21.9365 14.3212 25.3793C14.3212 27.4532 15.2948 29.3303 16.8166 30.5543C13.2837 32.1361 10.85 35.6773 10.85 39.7799C10.85 40.01 10.855 40.2216 10.8677 40.4215M20.6872 32.2011L20.6946 32.2002C20.6994 32.1995 20.7055 32.1988 20.7125 32.198C20.7399 32.1949 20.7817 32.1901 20.8203 32.1803M20.6872 32.2011L20.8203 32.1803M10.8677 40.4215L11.0174 40.4121M10.8677 40.4215C10.8677 40.4215 10.8677 40.4216 10.8677 40.4216L11.0174 40.4121M11.0174 40.4121C11.0545 41.0047 11.5455 41.4609 12.1306 41.4609H12.2001C12.815 41.4237 13.2836 40.8931 13.2464 40.2782C13.2364 40.127 13.234 39.9658 13.234 39.7823L11.0174 40.4121ZM20.8203 32.1803C20.8631 32.1713 20.9013 32.1575 20.9298 32.1472C20.9337 32.1457 20.9374 32.1444 20.9409 32.1431C20.9461 32.1413 20.953 32.139 20.9609 32.1363C20.9863 32.1278 21.0228 32.1156 21.0531 32.1017C21.0847 32.088 21.1214 32.0668 21.1437 32.0539C21.1507 32.0499 21.1563 32.0466 21.1599 32.0447L21.16 32.0448L21.1644 32.0422C21.1686 32.0397 21.1735 32.0369 21.1789 32.0339C21.2031 32.02 21.2374 32.0004 21.2663 31.9794L21.2663 31.9794L21.2681 31.9781C21.3001 31.954 21.3302 31.9296 21.3603 31.9024L21.3604 31.9022C21.3855 31.8817 21.4202 31.8533 21.4502 31.8201C21.4778 31.7898 21.5025 31.7597 21.5267 31.7275C21.548 31.7015 21.5741 31.6696 21.5979 31.6338C21.6173 31.6048 21.6353 31.5698 21.6478 31.5456C21.6515 31.5385 21.6547 31.5324 21.6573 31.5275C21.6761 31.4926 21.6931 31.4587 21.7102 31.4188C21.726 31.3819 21.7377 31.3367 21.7445 31.3103C21.7463 31.3036 21.7477 31.2981 21.7488 31.2943C21.7501 31.2897 21.7515 31.2849 21.7529 31.28C21.7612 31.2512 21.7713 31.2166 21.7789 31.1784C21.7883 31.1311 21.7914 31.0828 21.7937 31.0456L21.7939 31.0418L21.7942 31.0418V31.0324C21.7942 31.0324 21.7942 31.0323 21.7942 31.0321L21.7943 31.0311L21.7946 31.0271L21.7966 31.011L21.7968 31.0095C21.7986 30.9963 21.8016 30.9734 21.8016 30.9481V30.7349C21.8016 30.7066 21.7962 30.6681 21.7941 30.6542C21.7932 30.61 21.7875 30.5661 21.7798 30.5266C21.7732 30.4804 21.7612 30.4385 21.7521 30.4067L21.7512 30.4036L21.7508 30.4019C21.7412 30.3683 21.7301 30.3296 21.7161 30.2902L21.5748 30.3407L21.716 30.2902C21.7012 30.2487 21.6838 30.2108 21.6644 30.1743C21.6469 30.1373 21.6274 30.1038 21.6114 30.0764L21.6101 30.0742L21.6104 30.074L21.6054 30.0665L21.6045 30.0652C21.5852 30.0363 21.5634 30.0036 21.5386 29.9705L21.5387 29.9704L21.5347 29.9655C21.5305 29.9604 21.5253 29.9538 21.5193 29.9462C21.5036 29.9263 21.4828 29.8999 21.4626 29.8778L21.3516 29.9787L21.4626 29.8778C21.4339 29.8462 21.4054 29.8203 21.3803 29.7975L21.3757 29.7933C21.3455 29.7659 21.3158 29.7415 21.2892 29.7198L21.2879 29.7188L21.288 29.7187L21.2829 29.7149C21.2462 29.6873 21.2101 29.6662 21.1815 29.6495L21.1793 29.6483C21.1754 29.646 21.171 29.6434 21.1664 29.6407C21.1413 29.6259 21.1067 29.6054 21.0723 29.5896L21.0095 29.7258L21.0723 29.5896C21.0339 29.5718 20.9938 29.5575 20.9608 29.5457L20.9583 29.5448C20.9195 29.531 20.884 29.5201 20.8474 29.5096L20.8474 29.5096L20.8448 29.5089C20.7965 29.496 20.7499 29.4901 20.7107 29.4852L20.7087 29.4849C20.708 29.4849 20.7073 29.4848 20.706 29.4845C20.7036 29.4841 20.6992 29.4832 20.69 29.4812L20.6894 29.4811C20.6782 29.4786 20.6591 29.4745 20.6376 29.4724L20.6376 29.4723L20.6341 29.4721C18.5134 29.3095 16.8527 27.5105 16.8527 25.3793C16.8527 23.2483 18.5157 21.4516 20.6342 21.289C21.3318 21.2356 21.8522 20.6278 21.7987 19.9305C21.7453 19.2325 21.1322 18.7124 20.4401 18.7659L20.8203 32.1803Z" fill="#EE672D" stroke="#EE672D" stroke-width="0.3"/>
</svg>
