<?xml version="1.0" encoding="UTF-8"?><svg id="Layer_2" xmlns="http://www.w3.org/2000/svg" viewBox="0 0 1922.29 1452.14"><defs><style>.cls-1{letter-spacing:0em;}.cls-2,.cls-3{fill:#fff;}.cls-4{fill:#ffdbcc;}.cls-5{fill:#aaa;font-size:64px;}.cls-5,.cls-6,.cls-7,.cls-3{font-family:Rubik-Medium, Rubik;font-weight:500;}.cls-6{font-size:56px;}.cls-8{letter-spacing:0em;}.cls-9{letter-spacing:0em;}.cls-10{letter-spacing:0em;}.cls-11{letter-spacing:0em;}.cls-7,.cls-3{font-size:80px;}.cls-12{fill:#ee672d;}.cls-13{fill:#ededed;}</style></defs><g id="Search"><g><path class="cls-13" d="M1713.59,1342.72c-162.15-3.59-162.11-5.59-324.26-9.17-162.15-3.59-162.19-1.59-324.34-5.18-162.15-3.59-162.11-5.59-324.26-9.17-162.15-3.59-162.2-1.59-324.35-5.18s-162.11-5.59-324.26-9.17c-9.9-.22-19.75-.03-28.65-3.09-9.21-3.17-16.83-9.49-24.47-15.21s-15.91-11.33-21.51-19.17-8.16-17.3-11.13-26.58c-2.87-8.96-6.36-18.2-6.36-28.1,0-98.98,2-98.98,2-197.95,0-98.98-2-98.98-2-197.95,0-98.98,2-98.98,2-197.95,0-98.98-2-98.98-2-197.96s2-98.98,2-197.96c0-9.94-.39-19.82,2.49-28.81s9.17-17.09,14.75-24.87c5.64-7.86,11.06-16.19,18.82-21.95,7.69-5.71,17.2-8.52,26.46-11.66,8.94-3.03,18.15-6.7,28.09-6.86,162.15-2.69,162.18-.69,324.33-3.38,162.15-2.69,162.11-4.69,324.26-7.38,162.15-2.69,162.18-.69,324.34-3.38,162.15-2.69,162.12-4.69,324.27-7.38s162.18-.69,324.34-3.38c10.16-.17,20.25-.66,29.45,2.19,9.54,2.96,17.55,9.18,25.52,14.85s16.52,11.3,22.39,19.25c5.81,7.87,8.65,17.59,11.77,27.08s6.58,18.62,6.58,28.78c0,105.25-2,105.25-2,210.51,0,105.26,2,105.26,2,210.51,0,105.25-2,105.25-2,210.51,0,105.26,2,105.26,2,210.52s-2,105.26-2,210.52c0,10.2,.31,20.33-2.71,29.5s-9.52,17.45-15.37,25.33c-5.9,7.96-11.66,16.36-19.75,22.08s-17.82,8.33-27.4,11.26-18.82,6.2-29.02,5.97Z"/><g><path class="cls-2" d="M1793.59,1242.72c-162.15-3.59-162.11-5.59-324.26-9.17-162.15-3.59-162.19-1.59-324.34-5.18-162.15-3.59-162.11-5.59-324.26-9.17-162.15-3.59-162.2-1.59-324.35-5.18s-162.11-5.59-324.26-9.17c-9.9-.22-19.75-.03-28.65-3.09s-16.83-9.49-24.47-15.21-15.91-11.33-21.51-19.17-8.16-17.3-11.13-26.58c-2.87-8.96-6.36-18.2-6.36-28.1,0-98.98,2-98.98,2-197.95,0-98.98-2-98.98-2-197.95,0-98.98,2-98.98,2-197.95,0-98.98-2-98.98-2-197.96s2-98.98,2-197.96c0-9.94-.39-19.82,2.49-28.81s9.17-17.09,14.75-24.87c5.64-7.86,11.06-16.19,18.82-21.95s17.2-8.52,26.46-11.66,18.15-6.7,28.09-6.86c162.15-2.69,162.18-.69,324.33-3.38,162.15-2.69,162.11-4.69,324.26-7.38,162.15-2.69,162.18-.69,324.34-3.38,162.15-2.69,162.12-4.69,324.27-7.38s162.18-.69,324.34-3.38c10.16-.17,20.25-.66,29.45,2.19,9.54,2.96,17.55,9.18,25.52,14.85,8.04,5.73,16.52,11.3,22.39,19.25,5.81,7.87,8.65,17.59,11.77,27.08,3,9.15,6.58,18.62,6.58,28.78,0,105.25-2,105.25-2,210.51,0,105.26,2,105.26,2,210.51,0,105.25-2,105.25-2,210.51,0,105.26,2,105.26,2,210.52s-2,105.26-2,210.52c0,10.2,.31,20.33-2.71,29.5s-9.52,17.45-15.37,25.33c-5.9,7.96-11.66,16.36-19.75,22.08s-17.82,8.33-27.4,11.26c-9.24,2.82-18.82,6.2-29.02,5.97Z"/><path d="M1793.59,1238.97c-88.2-1.96-176.34-5.45-264.53-7.75-92.81-2.42-185.62-3.38-278.45-4.65-95.33-1.31-190.62-3.93-285.9-7.16-96.58-3.28-193.21-5.4-289.84-6.39-95.43-.98-190.84-2.61-286.23-5.54-36.97-1.14-73.93-2.54-110.91-3.66-25.08-.77-50.16-1.43-75.25-2.03-16.25-.39-33.21,.63-49.31-1.68-15.74-2.26-28.71-13.59-40.82-23.2-13.18-10.45-17.87-23.09-22.87-38.61-2.54-7.88-5.18-15.64-5.68-23.97s-.05-16.5-.02-24.69c.08-22.01,.33-44.02,.76-66.03,.93-47.82,1.39-95.63,1.1-143.47-.54-88.97-2.59-177.82-.81-266.81,1.81-90.36-.75-180.6-1.06-270.94-.16-46.26,.49-92.49,1.32-138.74,.43-24.02,.61-48.05,.64-72.07,.02-17.17-1.17-33.5,8.39-48.6,7.75-12.25,16.92-27.09,29.41-34.84,6.32-3.92,13.59-6.08,20.59-8.45,8.2-2.78,16.5-6.16,25.2-7.02,15.57-1.53,31.74-.64,47.39-.85,23.65-.33,47.3-.59,70.95-.76,37.11-.27,74.21-.31,111.32-.64,94.94-.86,189.83-3.04,284.73-5.7,96.55-2.7,193.14-4.21,289.72-4.63,96.07-.43,192.13-1.64,288.16-4.14,93.28-2.43,186.54-4.92,279.85-6,38.7-.45,77.41-.58,116.11-.78,20.79-.11,41.59-.28,62.38-.52,29.62-.34,59.7-2.46,89.28-1.08,17.16,.8,29.49,10.33,42.84,20,6.66,4.82,13.32,9.87,17.85,16.88,4.4,6.82,6.76,14.7,9.27,22.34s5.34,15.12,6.4,23.05c1.15,8.61,.51,17.6,.49,26.28-.04,12.98-.11,25.97-.25,38.95-.43,40.26-1.48,80.5-1.66,120.76-.45,98.13,2.62,196.22,1.72,294.35-.81,88.76-2.39,177.41-.72,266.18,1.69,89.74-.31,179.37-.93,269.09-.1,14.36-.14,28.73-.14,43.09,0,16.83-1.48,30.52-11.4,44.58-8.54,12.09-17.28,26.02-30.89,32.82-13.83,6.91-32.81,12.75-48.21,12.99-4.82,.07-4.84,7.58,0,7.5,14.99-.23,30.36-5.46,44.31-10.71,12.53-4.71,21.39-12.36,29.47-22.88,8.29-10.81,17.97-22.04,21.82-35.35,4.21-14.55,2.39-30.96,2.42-45.92,.1-42.23,1.09-84.43,1.62-126.65,1.25-99.72-1.9-199.38-1.6-299.1,.28-93.52,2.9-186.96,1.22-280.5-1.61-89.75-.51-179.38,.46-269.12,.31-28.12,3.96-58.4-4.9-85.4-4.05-12.33-7.48-25.58-16.1-35.65-8.88-10.38-21.96-18.82-33.48-25.97-12.49-7.75-25.13-9.41-39.62-9.2-16.39,.23-32.78,.54-49.17,.77-23.99,.33-47.99,.6-71.98,.77-95.42,.68-190.81,1.31-286.21,3.42-92.76,2.06-185.47,5.03-278.24,6.4-88.94,1.31-177.89,1.13-266.83,2.47-92.33,1.4-184.6,4.41-276.91,6.41-95.1,2.06-190.19,2.62-285.3,3.34-24.62,.19-49.24,.47-73.86,.83-14.93,.21-30.88-1.1-45.62,1.31-13.76,2.24-29.07,7.64-41.57,13.87-12.26,6.12-19.75,16.92-27.52,27.74-7.98,11.11-15.44,21.59-17.12,35.52-1.88,15.6-.62,31.86-.69,47.55-.05,12.07-.15,24.13-.32,36.2-1.2,88.51-1.32,176.85-.04,265.36,1.43,99.36-2.06,198.66-1.49,298.02,.52,90.34,2.56,180.55,.77,270.9-.43,21.92-.71,43.84-.8,65.76-.07,15.64-1.02,30.93,3.52,46.07,3.95,13.14,7.52,27.88,16.18,38.83,7.73,9.76,19.18,17.07,29.19,24.29,11.99,8.65,24,12.12,38.71,12.58,29.54,.93,59.1,1.33,88.64,2.16,92.45,2.58,184.86,6.03,277.33,7.9,88.96,1.79,177.93,2.1,266.89,3.95,92.22,1.92,184.38,5.44,276.58,7.94,95.02,2.58,190.03,3.65,285.07,4.9,97.4,1.29,194.76,3.96,292.11,7.26,47.68,1.62,95.37,2.87,143.06,3.93,4.83,.11,4.83-7.39,0-7.5Z"/></g><g><rect class="cls-13" x="223.57" y="139.64" width="1017.98" height="208.16" rx="27.09" ry="27.09"/><text class="cls-7" transform="translate(279.18 270.81)"><tspan x="0" y="0">Fish</tspan></text><g><rect class="cls-12" x="1297.45" y="141.19" width="470.5" height="208.16" rx="27.09" ry="27.09"/><text class="cls-3" transform="translate(1396.66 269.27)"><tspan x="0" y="0">Sea</tspan><tspan class="cls-8" x="143.44" y="0">r</tspan><tspan class="cls-11" x="176.24" y="0">ch</tspan></text></g><text class="cls-5" transform="translate(223.57 483.25)"><tspan x="0" y="0">M</tspan><tspan class="cls-9" x="51.97" y="0">a</tspan><tspan x="88.26" y="0">tching </tspan><tspan class="cls-1" x="304.12" y="0">F</tspan><tspan x="341.69" y="0">oods</tspan></text><rect class="cls-4" x="223.57" y="642.24" width="1544.38" height="142.39" rx="13.6" ry="13.6"/><text class="cls-6" transform="translate(273.57 607)"><tspan x="0" y="0">Fish Omelette</tspan></text><text class="cls-6" transform="translate(273.57 730.76)"><tspan x="0" y="0">Fish Fillet</tspan></text><text class="cls-6" transform="translate(273.57 854.51)"><tspan x="0" y="0">Fish Sauce</tspan></text><text class="cls-6" transform="translate(273.57 978.26)"><tspan x="0" y="0">Fish Fingers</tspan></text><text class="cls-6" transform="translate(273.57 1102.02)"><tspan x="0" y="0">Fish </tspan><tspan class="cls-10" x="125.1" y="0">R</tspan><tspan x="162.17" y="0">oe</tspan></text></g><path class="cls-2" d="M1562.2,857.81c-16.6-21.4-47.95-19.97-73.58-13.97-19.64-20.74-55.33-15.77-81.04-8.33-26.17-13.82-65.94-2.26-86.71,5.57-37.62-59.59-78.79-125.61-99.28-161.08-4.48-7.75-9.02-13.87-13.54-18.56h0s0,0,0,0c-25.01-25.94-49.41-8.14-58.43,19.98-7.58,23.64,3.19,51.41,16.36,72.71,47.41,76.64,78.51,135.54,98.49,180.79h0c-219.69,274.07,208.05,362.42,208.05,362.42l183.92-111.21s54.18-136.87-94.25-328.33Z"/><path class="cls-13" d="M1496.53,1267.35s-270.8-55.93-270.8-216.85c0-34.55,9.78-69.89,40.11-114.61,3.05-4.5,30.53,82.02,31.6,112.69,3.24-4.37,31.44-64-8.96-143.65-19.98-45.25-51.08-104.15-98.49-180.79-13.18-21.3-23.94-49.08-16.36-72.71,.07-.23,.15-.47,.23-.7-10.82,4.41-19.58,16.18-24.23,30.7-7.58,23.63,3.18,51.41,16.36,72.71,47.41,76.64,78.51,135.54,98.49,180.79-44.89,56-62.75,104.25-62.75,145.57,0,160.92,270.8,216.85,270.8,216.85l183.92-111.21s2.56-6.46,5.04-18.53l-164.96,99.74Z"/><g><path d="M1261.83,932.28c-10.08,12.59-19.59,25.64-28.11,39.34-7.25,11.66-13.8,23.77-19.27,36.37-4.84,11.14-8.91,22.6-11.76,34.41-2.54,10.51-4.14,21.28-4.59,32.09-.41,9.99,.24,20,1.89,29.87,1.52,9.11,3.98,18.06,7.3,26.69s7.48,17.12,12.34,25.09c4.88,8.02,10.47,15.62,16.51,22.8,6,7.13,12.5,13.83,19.36,20.14,7.14,6.57,14.66,12.7,22.43,18.5,7.65,5.71,15.56,11.07,23.66,16.11s16.31,9.74,24.69,14.19,16.53,8.46,24.96,12.34,16.68,7.42,25.14,10.84c7.72,3.12,15.51,6.08,23.36,8.89,7.04,2.52,14.12,4.92,21.24,7.2,6.13,1.96,12.3,3.84,18.49,5.62,4.97,1.43,9.96,2.8,14.97,4.11,3.56,.93,7.12,1.82,10.7,2.66,1.89,.45,3.77,.88,5.67,1.29,.24,.05,.47,.1,.71,.15,1.98,.41,4.05-.58,4.61-2.62,.51-1.86-.63-4.2-2.62-4.61-.98-.2-1.95-.42-2.92-.64-2.75-.62-5.49-1.28-8.22-1.95-4.3-1.07-8.58-2.19-12.86-3.36-5.56-1.52-11.11-3.12-16.63-4.79-6.64-2.01-13.24-4.12-19.81-6.34-7.4-2.5-14.76-5.13-22.07-7.89-3.95-1.5-7.88-3.03-11.8-4.61-1.99-.8-3.98-1.62-5.97-2.44-.47-.2-.94-.39-1.41-.59-.33-.14-1.81-.76-.88-.37-1.03-.43-2.06-.87-3.08-1.31-8.28-3.55-16.48-7.31-24.56-11.28-8.4-4.13-16.68-8.49-24.81-13.13s-16.25-9.64-24.08-14.92c-3.96-2.67-7.86-5.42-11.69-8.26-.93-.69-1.85-1.38-2.77-2.08-.48-.36-.96-.73-1.43-1.09-.29-.22-.63-.48-.12-.09-.26-.2-.51-.4-.77-.59-1.85-1.44-3.69-2.91-5.51-4.4-7.2-5.9-14.11-12.17-20.61-18.85-3.24-3.33-6.37-6.76-9.38-10.29-1.48-1.74-2.93-3.5-4.35-5.29-.33-.42-.66-.84-.99-1.26-.44-.56,.37,.48-.07-.09-.19-.25-.38-.5-.57-.74-.7-.92-1.39-1.85-2.08-2.78-5.35-7.32-10.15-15.06-14.21-23.17-1.01-2.01-1.97-4.05-2.89-6.1-.22-.48-.43-.97-.64-1.46-.11-.24-.21-.49-.31-.73-.17-.39,.12,.28,.12,.29-.07-.16-.14-.33-.2-.49-.44-1.06-.87-2.13-1.29-3.2-1.64-4.23-3.08-8.54-4.3-12.91s-2.25-8.93-3.03-13.47c-.2-1.17-.39-2.35-.56-3.53-.04-.27-.08-.55-.12-.82-.11-.74,.08,.64-.01-.1-.08-.64-.16-1.28-.24-1.92-.28-2.36-.49-4.73-.64-7.1-.31-4.87-.37-9.76-.18-14.64,.1-2.52,.26-5.03,.48-7.54,.12-1.3,.25-2.6,.4-3.9,.07-.6,.14-1.21,.22-1.81,.04-.3,.08-.61,.12-.91-.1,.77,.01-.07,.05-.37,1.56-11.04,4.27-21.89,7.85-32.45,.96-2.84,1.99-5.66,3.07-8.45,1.19-3.07,2.17-5.45,3.3-8.05,2.62-6.01,5.49-11.91,8.55-17.7,6.9-13.02,14.81-25.49,23.36-37.48,4.53-6.35,9.26-12.57,14.13-18.67,1.26-1.58,1.54-3.76,0-5.3-1.31-1.31-4.03-1.59-5.3,0h0Z"/><path d="M1403.05,963.25c-2.36-3.68-4.72-7.37-7.08-11.05-6.24-9.75-12.47-19.51-18.7-29.27-9.04-14.18-18.07-28.36-27.08-42.56-10.58-16.68-21.15-33.36-31.68-50.07-10.99-17.44-21.95-34.89-32.86-52.38-10.24-16.41-20.43-32.84-30.54-49.33-8.33-13.59-16.6-27.21-24.7-40.94-5.12-8.68-9.95-17.51-16.46-25.26-6.53-7.77-15.29-15.13-25.61-16.84-19.16-3.17-33.31,12.68-40.07,28.8-11.18,26.65-.92,55.93,13.12,79.43,8.28,13.86,16.88,27.53,25.11,41.42,7.51,12.67,14.9,25.42,22.13,38.26,12.35,21.92,24.25,44.11,35.4,66.66,8.61,17.42,17,35.52,24.22,53.1,5.68,13.82,10.91,27.84,15.3,42.13,3.24,10.53,6.04,21.22,7.96,32.08,.39,2.2,.73,4.42,1.05,6.63,.12,.81-.1-.76-.01-.11,.03,.26,.07,.52,.1,.78,.07,.54,.14,1.09,.2,1.64,.11,.96,.21,1.92,.31,2.89,.34,3.56,.55,7.13,.56,10.7,0,2.95-.11,5.91-.43,8.85-.03,.31-.07,.62-.1,.92-.02,.14-.04,.28-.05,.42-.1,.85,.08-.54,.04-.28-.1,.61-.18,1.22-.28,1.83-.19,1.11-.41,2.22-.67,3.32-.45,1.92-1.04,3.8-1.74,5.65-.07,.19-.16,.38-.23,.57-.12,.33,.48-1.07,.08-.2-.16,.36-.32,.72-.5,1.08-.33,.68-.68,1.35-1.06,2-.34,.58-.7,1.15-1.09,1.7-.18,.25-.38,.49-.55,.75,.29-.44,.6-.72,0-.03-.65,.75-1.32,1.48-2.07,2.13-.15,.13-.31,.25-.46,.39-.63,.57,.98-.66,.28-.22-.28,.18-.54,.38-.82,.56-.38,.24-.81,.41-1.19,.65-.52,.33,1.22-.45,.46-.2-4.58,1.47-2.62,8.71,1.99,7.23,.87-.28,1.74-.71,2.51-1.2,1.68-1.05,3.22-2.41,4.5-3.92,2.24-2.64,3.86-5.57,5.16-8.76,1.72-4.23,2.61-8.71,3.16-13.24,.76-6.24,.68-12.57,.17-18.83-.75-9.24-2.39-18.4-4.49-27.43-2.83-12.12-6.51-24.04-10.63-35.77-5.59-15.92-12.02-31.55-18.88-46.97-8.75-19.66-18.26-38.98-28.21-58.06-12.56-24.08-25.84-47.78-39.56-71.22-8.04-13.74-16.24-27.39-24.57-40.96-7.76-12.66-15.36-25.21-19.78-39.49-4.02-12.97-5.5-26.88-1.07-39.94,2.81-8.29,7.21-16.2,13.7-22.04,1.55-1.4,2.46-2.09,4.38-3.26,.78-.47,1.59-.91,2.41-1.31,1.18-.58,.95-.48,2.26-.92,.84-.29,1.7-.53,2.57-.72,.41-.09,.81-.17,1.22-.24,.23-.04,.47-.08,.71-.11-.7,.09,.11,0,.25,0,.9-.06,1.8-.11,2.71-.09,.49,.01,.98,.04,1.47,.08,.25,.02,.49,.04,.74,.07-.54-.06,.08,0,.3,.05,9.82,1.73,17.71,8.97,23.89,16.86,5.66,7.22,9.94,15.44,14.6,23.31,3.81,6.44,7.66,12.86,11.53,19.27,9.29,15.38,18.71,30.68,28.17,45.95,10.64,17.18,21.35,34.31,32.09,51.43,10.81,17.23,21.67,34.43,32.54,51.62,9.86,15.58,19.74,31.14,29.63,46.69,7.66,12.03,15.33,24.06,23.01,36.08,4.35,6.8,8.69,13.6,13.05,20.39,.57,.89,1.14,1.77,1.71,2.66,2.6,4.05,9.09,.29,6.48-3.79h0Z"/><path d="M1491.45,946.15c-3.39-5.83-6.89-11.61-10.4-17.37-8.2-13.44-16.61-26.74-25.29-39.87-10.04-15.17-20.43-30.16-31.68-44.46-11.89-15.13-31.4-19.68-49.81-19.06-16.99,.58-33.84,4.77-49.82,10.42-1.53,.54-3.05,1.1-4.57,1.67-1.89,.71-3.19,2.53-2.62,4.61,.5,1.82,2.71,3.34,4.61,2.62,6.86-2.58,13.83-4.85,20.91-6.74,4.11-1.09,8.26-2.06,12.43-2.86,2.15-.41,4.32-.78,6.49-1.1,.31-.05,.62-.09,.94-.13,.1-.01,.74-.1,.13-.02,.5-.07,1-.13,1.5-.19,1.13-.14,2.26-.26,3.39-.36,4.38-.4,8.78-.58,13.17-.43,2.16,.07,4.31,.22,6.46,.47,.3,.03,.61,.07,.91,.11,.12,.01,.74,.1,.09,.01,.48,.07,.96,.14,1.44,.22,1.07,.17,2.14,.37,3.2,.6,2.04,.44,4.06,.97,6.04,1.63,.95,.31,1.89,.65,2.83,1.02,.22,.09,.44,.17,.65,.26-.59-.24-.03-.01,.08,.03,.54,.24,1.07,.48,1.6,.73,4.32,2.07,7.76,4.42,11.03,7.68,1.68,1.67,3.16,3.51,4.62,5.38,.15,.19,.3,.38,.44,.57,.42,.55-.52-.68,.19,.25,.3,.39,.59,.77,.89,1.16,.67,.88,1.34,1.76,2.01,2.64,2.66,3.52,5.27,7.08,7.84,10.66,5.26,7.33,10.38,14.76,15.39,22.26,8.92,13.33,17.53,26.87,25.92,40.53,4.18,6.81,8.17,13.75,12.36,20.55,.06,.09,.11,.19,.17,.29,1.02,1.75,3.39,2.37,5.13,1.35s2.37-3.37,1.35-5.13h0Z"/><path d="M1561.45,946.15c-3.07-5.28-6.23-10.51-9.4-15.73-7.5-12.33-15.18-24.55-23.08-36.63-9.39-14.35-19.08-28.54-29.42-42.23-2.69-3.56-5.31-7.27-8.4-10.49-2.74-2.86-5.89-5.37-9.27-7.43-6.61-4.03-14.17-6.37-21.8-7.43-16.12-2.25-32.6,.18-48.24,4.25-.86,.22-1.72,.45-2.58,.69-.42,.12-.85,.23-1.27,.35s-1.85,.27-.42,.27c-1.96,0-3.84,1.72-3.75,3.75s1.65,3.75,3.75,3.75c.96,0,1.97-.41,2.89-.67s1.92-.53,2.89-.78c1.81-.48,3.63-.93,5.46-1.35,3.77-.87,7.57-1.63,11.4-2.23,.47-.07,.94-.15,1.41-.22,.24-.03,.47-.07,.71-.1,.1-.01,.84-.12,.39-.06s.29-.04,.39-.05c.24-.03,.47-.06,.71-.09,.53-.07,1.07-.13,1.6-.19,2.02-.22,4.04-.4,6.07-.52,3.9-.23,7.81-.26,11.7-.03,.93,.06,1.86,.13,2.79,.22,.46,.04,.92,.09,1.38,.15,.23,.03,.46,.06,.69,.08,.73,.09-.24-.04,.2,.03,1.87,.27,3.72,.6,5.56,1.02s3.6,.91,5.36,1.5c.85,.28,1.69,.59,2.52,.91,.21,.08,.41,.17,.62,.25,.54,.22-.51-.22,.03,0,.46,.2,.91,.4,1.37,.61,1.7,.8,3.36,1.7,4.95,2.7,.75,.47,1.49,.97,2.21,1.49,.18,.13,1.12,.84,.58,.42,.4,.31,.79,.63,1.17,.96,1.5,1.27,2.92,2.65,4.23,4.12,.75,.83,1.45,1.7,2.14,2.58,.3,.38,.59,.76,.89,1.14,.15,.19,.3,.38,.44,.57-.32-.41,.07,.09,.19,.25,10.29,13.37,19.89,27.27,29.18,41.34,8.2,12.4,16.15,24.97,23.9,37.65,3.79,6.2,7.42,12.5,11.21,18.69,.05,.09,.11,.18,.16,.27,1.02,1.75,3.39,2.37,5.13,1.35s2.37-3.37,1.35-5.13h0Z"/><path d="M1489.62,847.45c9.28-2.16,18.59-3.62,28.14-3.72,8.94-.1,18.24,.98,26.32,4.63,4.06,1.84,7.81,4.2,11,7.19,4.18,3.9,7.45,8.75,10.86,13.3,7.66,10.23,15.02,20.67,22.04,31.34,12.51,19.01,23.95,38.74,33.96,59.18,8.52,17.39,15.96,35.3,22.09,53.67,5.23,15.67,9.5,31.67,12.61,47.9,.71,3.67,1.35,7.36,1.94,11.05,.27,1.73,.53,3.46,.78,5.19,.06,.41,.12,.82,.17,1.24,.02,.15,.2,1.51,.1,.76,.12,.87,.23,1.74,.34,2.61,.82,6.55,1.43,13.13,1.83,19.72,.69,11.31,.74,22.65,.06,33.96-.28,4.65-.68,9.3-1.23,13.93-.12,1.06-.26,2.12-.39,3.18-.02,.16-.14,1.04-.04,.33s-.02,.14-.04,.32c-.07,.53-.15,1.07-.23,1.6-.27,1.86-.57,3.72-.89,5.58-.99,5.71-2.2,11.4-3.75,16.98-.7,2.52-1.57,4.96-2.35,7.45-.03,.1-.08,.2-.12,.3-.74,1.88,.82,4.12,2.62,4.61,2.13,.59,3.87-.73,4.61-2.62,.67-1.7,1.21-3.46,1.73-5.21,1.48-4.95,2.66-9.99,3.66-15.06,1.62-8.28,2.74-16.66,3.45-25.06,.92-10.82,1.14-21.7,.77-32.56-.48-13.76-1.93-27.48-4.15-41.06-2.61-15.96-6.37-31.72-11.08-47.18-5.61-18.4-12.57-36.37-20.56-53.86-9.32-20.41-20.11-40.15-32.01-59.17-6.69-10.7-13.74-21.19-21.08-31.45-3.86-5.4-7.81-10.74-11.83-16.02-3.38-4.43-6.65-8.87-11.03-12.37-15.8-12.63-37.12-13.27-56.3-10.56-4.71,.66-9.38,1.57-14.01,2.65s-2.71,8.33,1.99,7.23h0Z"/><path d="M1209.95,658.2c-3.56-2.06-7.63-3.57-11.63-4.46-7.48-1.66-15.89-.91-21.31,5.11-3.52,3.91-5.35,9.02-6.16,14.16-1.29,8.21-.72,16.55,.47,24.73,1.92,13.21,6.66,28.52,18.6,36.07s25.66,2.67,36-4.7c1.87-1.34,3.69-2.76,5.45-4.24,1.55-1.3,1.34-3.96,0-5.3-1.54-1.54-3.75-1.3-5.3,0-.78,.65-1.56,1.3-2.36,1.91,.48-.37-.61,.45-.7,.52-.38,.28-.77,.56-1.16,.83-1.51,1.06-3.07,2.06-4.68,2.98-.68,.39-1.37,.76-2.07,1.11-.36,.18-.72,.36-1.09,.53-.18,.08-.36,.17-.54,.25-.01,0-.87,.38-.36,.16,.44-.19-.62,.25-.75,.3-.35,.13-.7,.26-1.05,.39-.73,.25-1.46,.49-2.2,.69-.63,.17-1.26,.32-1.9,.45-.33,.07-.66,.13-1,.18-.16,.03-.33,.05-.5,.08-.48,.08,.84-.08,.14-.02-1.28,.1-2.53,.19-3.81,.13-.31-.02-.62-.04-.92-.07-.15-.01-.3-.03-.46-.05-.57-.05,.28,.08,.32,.05-.19,.17-1.63-.3-1.89-.37-.54-.13-1.08-.29-1.62-.46-.28-.09-.56-.2-.84-.3-.07-.03-.4-.13-.42-.16,.06,.12,.84,.38,.18,.07-1.13-.53-2.22-1.12-3.25-1.82-.22-.15-.44-.31-.66-.46-.75-.52,.54,.46-.16-.12-.52-.43-1.03-.86-1.52-1.32-.96-.9-1.84-1.88-2.67-2.9-.11-.13-.21-.27-.32-.4,.06,.08,.5,.68,.12,.14-.2-.28-.41-.56-.61-.85-.41-.59-.8-1.18-1.17-1.79-.81-1.32-1.54-2.69-2.21-4.08-.15-.31-.29-.62-.43-.93-.1-.22-.54-1.24-.22-.48-.34-.81-.65-1.62-.95-2.44-1.25-3.42-2.18-6.94-2.9-10.5-.39-1.93-.72-3.87-.98-5.83,.08,.6,0-.05-.02-.14-.03-.26-.06-.51-.09-.77-.06-.52-.12-1.03-.17-1.55-.11-1.05-.21-2.11-.29-3.17-.29-3.74-.38-7.51-.12-11.26,.06-.78,.13-1.55,.22-2.33,.1-.9-.08,.44,.03-.24,.07-.44,.13-.88,.21-1.32,.23-1.28,.51-2.55,.89-3.8,.16-.53,.33-1.06,.52-1.58,.1-.26,.21-.52,.3-.79,.15-.45-.34,.75-.14,.33,.07-.15,.13-.31,.21-.46,.42-.91,.9-1.8,1.46-2.63,.13-.2,.27-.39,.4-.58,.51-.74-.45,.52-.07,.08,.31-.35,.6-.71,.93-1.05,.28-.28,.56-.56,.86-.82,.07-.06,.47-.32,.47-.4-.01,.27-.78,.56-.4,.31,.1-.07,.2-.15,.31-.22,.67-.47,1.37-.86,2.1-1.22,.16-.08,.76-.34,.08-.05-.72,.31,0,0,.15-.05,.38-.14,.77-.26,1.16-.37,.73-.21,1.5-.27,2.23-.46-1.4,.37-.2,.04,.27,0,.38-.03,.76-.04,1.13-.05,.78-.01,1.56,.02,2.33,.08,.35,.03,.7,.08,1.05,.11,.47,.04-1.11-.17-.3-.04,.21,.03,.41,.06,.62,.1,2.68,.46,5.29,1.26,7.81,2.27,.13,.05,.26,.11,.39,.16,.65,.26-.89-.39-.43-.18,.25,.11,.5,.21,.74,.32,.4,.18,.8,.37,1.19,.56,.5,.24,.99,.51,1.48,.76,.07,.03,.13,.07,.19,.11,1.75,1.01,4.11,.41,5.13-1.35s.41-4.11-1.35-5.13h0Z"/></g><g><path class="cls-12" d="M1464.26,1448.48l-44.02-71.66c-12.57-20.46-12.96-46.12-1.11-67.01,19.74-34.79,54.4-82.17,112.08-120.23,55.16-36.39,109.82-50.03,148.96-55.06,25.66-3.29,50.85,8.8,64.38,30.84,57.98,94.37,115.95,188.75,173.93,283.12"/><path d="M1467.5,1446.59c-6.43-10.46-12.85-20.92-19.28-31.38-7.95-12.94-15.9-25.88-23.84-38.82-5.5-8.95-9.19-18.73-9.94-29.28-.56-7.79,.31-15.57,2.6-23.04,2.01-6.55,5.29-12.42,8.76-18.28,13.1-22.09,28.58-42.74,46.18-61.46,22.99-24.46,49.49-45.49,78.56-62.3,28.23-16.32,58.7-28.53,90.34-36.36,12.52-3.1,25.22-5.54,38.01-7.25,13.98-1.86,28.02,.42,40.33,7.45,6.14,3.51,11.59,8.01,16.23,13.35,5.54,6.37,9.55,14.04,13.96,21.2,10.01,16.3,20.02,32.59,30.03,48.89,20.2,32.87,40.39,65.75,60.59,98.63,20.2,32.88,40.39,65.75,60.59,98.62,4.88,7.94,9.75,15.87,14.63,23.81,2.52,4.11,9.01,.34,6.48-3.79-20.55-33.44-41.09-66.88-61.63-100.32-20.63-33.58-41.26-67.17-61.89-100.75-10.27-16.72-20.54-33.44-30.82-50.16-5.14-8.36-10.27-16.72-15.41-25.08-4.27-6.95-8.45-13.79-14.25-19.6-10.28-10.31-23.9-17.35-38.3-19.55-13.59-2.08-27.23,.49-40.6,3-30.67,5.75-60.54,15.56-88.66,29.07-32.1,15.43-61.82,35.84-87.81,60.19-20.66,19.35-38.94,41.24-54.47,64.91-7.01,10.68-14.51,21.84-18.2,34.17-4.66,15.56-3.62,32.49,2.77,47.41,2.32,5.42,5.47,10.34,8.54,15.34,4.24,6.9,8.48,13.8,12.71,20.7,8.57,13.95,17.14,27.9,25.71,41.85,.53,.87,1.07,1.74,1.6,2.61,2.52,4.11,9.01,.34,6.48-3.79h0Z"/></g><g><g><path class="cls-12" d="M1227.89,578.58c7.46-11.4,9.13-10.31,16.59-21.72,7.46-11.41,5.78-12.5,13.24-23.91s9.13-10.31,16.59-21.72"/><path class="cls-12" d="M1231.12,580.47c.95-1.45,1.92-2.88,2.94-4.28,.41-.57,.83-1.13,1.26-1.69-.51,.66,.12-.15,.19-.24,.18-.23,.37-.46,.56-.69,1.32-1.62,2.74-3.16,4.1-4.74,4.04-4.66,7.58-9.79,10.64-15.13,2.24-3.91,3.9-8.1,6.04-12.06,1.55-2.89,3.31-5.67,5.14-8.39,.82-1.21,1.66-2.4,2.53-3.57,.2-.27,.41-.54,.61-.81-.51,.66,.12-.15,.19-.24,.42-.52,.84-1.04,1.28-1.55,1.52-1.79,3.12-3.51,4.62-5.32,2.27-2.75,4.35-5.65,6.3-8.64,1.11-1.69,.34-4.15-1.35-5.13-1.83-1.07-4.02-.35-5.13,1.35-.95,1.45-1.92,2.88-2.94,4.28-.41,.57-.83,1.13-1.26,1.69,.51-.66-.12,.15-.19,.24-.18,.23-.37,.46-.56,.69-1.32,1.62-2.74,3.16-4.11,4.74-4.04,4.66-7.58,9.79-10.65,15.13-2.24,3.91-3.9,8.1-6.04,12.06-1.55,2.89-3.31,5.67-5.14,8.39-.82,1.21-1.66,2.4-2.53,3.57-.2,.27-.41,.54-.61,.81,.51-.66-.12,.15-.19,.24-.42,.52-.84,1.04-1.28,1.55-1.52,1.79-3.12,3.51-4.62,5.32-2.27,2.75-4.35,5.65-6.3,8.63-1.11,1.69-.34,4.15,1.35,5.13,1.83,1.07,4.02,.35,5.13-1.35h0Z"/></g><g><path class="cls-12" d="M1122.79,585.03c-6.28-12.11-4.51-13.03-10.79-25.14s-8.06-11.19-14.34-23.3-4.51-13.03-10.79-25.15"/><path class="cls-12" d="M1126.02,583.13c-.8-1.54-1.57-3.09-2.29-4.67-.29-.64-.58-1.28-.85-1.93,.33,.79-.06-.16-.11-.27-.11-.28-.22-.55-.33-.83-.76-1.95-1.41-3.94-2.11-5.91-2.08-5.81-4.81-11.43-7.96-16.73-2.31-3.88-5.14-7.39-7.55-11.2-1.76-2.78-3.32-5.67-4.79-8.61-.65-1.31-1.28-2.63-1.87-3.97-.14-.31-.27-.62-.41-.93,.33,.79-.06-.16-.11-.27-.25-.62-.49-1.25-.73-1.88-.82-2.2-1.53-4.45-2.37-6.64-1.28-3.34-2.8-6.58-4.44-9.76-.93-1.8-3.45-2.33-5.13-1.35-1.83,1.07-2.28,3.32-1.35,5.13,.8,1.54,1.57,3.09,2.29,4.67,.29,.64,.58,1.28,.85,1.93-.33-.79,.06,.16,.11,.27,.11,.28,.22,.55,.33,.83,.76,1.95,1.41,3.94,2.11,5.91,2.08,5.81,4.81,11.43,7.97,16.73,2.31,3.88,5.14,7.39,7.55,11.2,1.76,2.78,3.32,5.67,4.79,8.61,.65,1.31,1.28,2.63,1.87,3.96,.14,.31,.27,.62,.41,.93-.33-.79,.06,.16,.11,.27,.25,.62,.49,1.25,.73,1.88,.82,2.2,1.53,4.45,2.37,6.64,1.28,3.34,2.8,6.58,4.44,9.75,.93,1.8,3.45,2.33,5.13,1.35,1.83-1.07,2.28-3.32,1.35-5.13h0Z"/></g><g><path class="cls-12" d="M1086.47,690.19c-13.62,.32-13.67-1.67-27.29-1.35s-13.58,2.32-27.2,2.65-13.67-1.67-27.3-1.35"/><path class="cls-12" d="M1086.47,686.44c-5.24,.12-10.33-.31-15.52-.9-5.84-.66-11.78-.64-17.63-.16-2.64,.21-5.27,.58-7.88,1.02-.91,.15-1.81,.31-2.72,.46-.52,.08-1.05,.16-1.57,.24-.95,.14,.86-.1-.12,.02-.4,.05-.8,.1-1.2,.14-5.96,.65-12.07,.76-18.05,.19-2.31-.22-4.6-.56-6.9-.78-3.39-.32-6.79-.36-10.2-.29-1.96,.04-3.84,1.69-3.75,3.75s1.65,3.8,3.75,3.75c5.24-.12,10.33,.31,15.52,.9,5.84,.66,11.78,.64,17.63,.16,2.64-.21,5.27-.58,7.88-1.02,.91-.15,1.81-.31,2.72-.46,.52-.08,1.05-.16,1.57-.24,.95-.14-.86,.1,.12-.02,.4-.05,.8-.1,1.2-.14,5.96-.65,12.07-.76,18.04-.19,2.31,.22,4.6,.56,6.9,.78,3.39,.32,6.79,.36,10.19,.29,1.96-.04,3.84-1.69,3.75-3.75s-1.65-3.8-3.75-3.75h0Z"/></g><g><path class="cls-12" d="M1137.46,815.54c-10.47,8.72-11.75,7.19-22.22,15.91s-9.19,10.26-19.66,18.98-11.75,7.19-22.22,15.91"/><path class="cls-12" d="M1134.81,812.89c-2.33,1.93-4.15,3.37-6.78,5.11-1.74,1.16-3.54,2.22-5.31,3.33-5.22,3.27-10.09,7.18-14.59,11.38-3.29,3.08-6.11,6.6-9.3,9.76-4.36,4.32-8.63,7.82-13.62,11.04-1.98,1.27-4.01,2.45-5.97,3.74-2.98,1.96-5.79,4.17-8.53,6.44-1.56,1.29-1.34,3.96,0,5.3,1.54,1.54,3.74,1.3,5.3,0,2.33-1.93,4.15-3.37,6.78-5.11,1.74-1.16,3.54-2.22,5.31-3.33,5.22-3.27,10.1-7.18,14.59-11.38,3.29-3.08,6.11-6.6,9.3-9.76,4.36-4.32,8.63-7.82,13.62-11.03,1.98-1.27,4.01-2.45,5.97-3.74,2.98-1.96,5.79-4.17,8.53-6.44,1.56-1.29,1.34-3.96,0-5.3-1.54-1.54-3.74-1.3-5.3,0h0Z"/></g><g><path class="cls-12" d="M1304.27,668.76c12.91-4.34,13.55-2.45,26.47-6.79,12.92-4.34,12.28-6.24,25.2-10.58s13.55-2.45,26.47-6.79"/><path class="cls-12" d="M1305.27,672.38c4.94-1.65,9.88-2.75,14.98-3.72,5.83-1.1,11.55-2.9,17.05-5.11,4.39-1.77,8.49-4.09,12.81-5.99,.1-.04,1.06-.46,.29-.13,.32-.13,.64-.27,.96-.39,.71-.29,1.43-.56,2.15-.83,1.73-.64,3.47-1.24,5.22-1.8,2.67-.85,5.37-1.6,8.11-2.17,2.3-.48,4.62-.83,6.91-1.32,3.27-.69,6.47-1.65,9.64-2.71,1.92-.64,3.18-2.58,2.62-4.61-.52-1.88-2.68-3.26-4.61-2.62-4.94,1.65-9.89,2.75-14.99,3.72-5.83,1.1-11.55,2.9-17.05,5.11-4.39,1.77-8.49,4.09-12.81,5.99-.1,.04-1.06,.46-.29,.13-.32,.13-.64,.27-.96,.39-.71,.29-1.43,.56-2.15,.83-1.73,.64-3.47,1.24-5.22,1.8-2.67,.85-5.37,1.6-8.11,2.17-2.3,.48-4.62,.83-6.91,1.32-3.27,.69-6.47,1.65-9.64,2.71-1.92,.64-3.18,2.58-2.62,4.61,.52,1.88,2.68,3.26,4.61,2.62h0Z"/></g></g></g></g></svg>