<svg width="64" height="60" viewBox="0 0 64 60" fill="none" xmlns="http://www.w3.org/2000/svg">
<circle opacity="0.15" cx="29.6453" cy="32.5927" r="24.9909" fill="#EE672D"/>
<path d="M33.2025 59.9962C26.9566 59.9962 21.0147 58.1144 15.9511 54.541L2.43652 58.506C1.74083 58.7113 0.991928 58.5022 0.501527 57.9662C0.0111262 57.4339 -0.133326 56.666 0.128982 55.9932L5.63744 41.8438C4.02558 38.1068 3.20444 34.1266 3.20444 29.9981C3.20444 13.4575 16.662 0 33.2025 0C49.7431 0 63.2044 13.4575 63.2044 30.0019C63.2044 39.2511 59.0303 47.8464 51.7579 53.5754C50.933 54.2254 49.7393 54.0848 49.0892 53.2598C48.4392 52.4349 48.5798 51.2412 49.4048 50.5911C55.761 45.5845 59.4029 38.0802 59.4029 30.0019C59.4029 15.556 47.6485 3.80156 33.2025 3.80156C18.7566 3.80156 7.006 15.556 7.006 30.0019C7.006 33.8491 7.81954 37.5442 9.41999 40.9922C9.63668 41.4598 9.65569 41.9996 9.46561 42.4824L5.07101 53.7692L15.7762 50.6292C16.354 50.4581 16.9775 50.5721 17.4565 50.9371C22.0184 54.3775 27.4622 56.1984 33.1987 56.1984C36.9661 56.1984 40.6042 55.4153 44.0066 53.8719C44.9608 53.4385 46.0898 53.8605 46.5232 54.8185C46.9566 55.7727 46.5346 56.9017 45.5766 57.3351C41.6762 59.1028 37.5135 60 33.1987 60L33.2025 59.9962Z" fill="#EE672D"/>
<path d="M48.3625 25.9321C49.3646 25.9321 50.1805 25.1149 50.1805 24.1193V23.7767C50.1805 22.7775 49.361 21.9639 48.3625 21.9639H41.8527L42.4933 15.3301C42.5899 14.3381 41.8527 13.4459 40.8578 13.3496L40.5142 13.3175C39.5193 13.2211 38.6246 13.9562 38.528 14.9483L37.8516 21.9604H29.5918L30.2324 15.3265C30.329 14.3345 29.5918 13.4424 28.5969 13.346L28.2533 13.3139C27.2584 13.2176 26.3637 13.9527 26.2671 14.9447L25.5907 21.9604H19.471C18.4689 21.9604 17.6529 22.7775 17.6529 23.7732V24.1157C17.6529 25.1149 18.4725 25.9285 19.471 25.9285H25.2078L24.4168 34.1253H18.1647C17.1662 34.136 16.3467 34.9497 16.3467 35.9488V36.2914C16.3467 37.2906 17.1662 38.1042 18.1647 38.1042H24.0339L23.3933 44.738C23.2967 45.7301 24.0339 46.6222 25.0288 46.7185L25.3724 46.7506C26.3673 46.847 27.262 46.1119 27.3586 45.1198L28.035 38.1042H36.2948L35.6542 44.738C35.5576 45.7301 36.2948 46.6222 37.2898 46.7185L37.6333 46.7506C38.6282 46.847 39.5229 46.1119 39.6195 45.1198L40.2959 38.1042H46.8594C47.8615 38.1042 48.6775 37.287 48.6775 36.2914V35.9488C48.6775 34.9497 47.8579 34.136 46.8594 34.136H40.6789L41.4698 25.9392H48.3661L48.3625 25.9321ZM36.6742 34.1289H28.4144L29.2053 25.9321H37.4651L36.6742 34.1289Z" fill="#EE672D"/>
</svg>
